<svg width="21" height="22" viewBox="0 0 21 22" fill="none" xmlns="http://www.w3.org/2000/svg">
<path opacity="0.2" d="M10.5 2.24976C15.3256 2.24976 19.25 6.17501 19.25 10.9998C19.25 15.8245 15.3256 19.7498 10.5 19.7498C5.67525 19.7498 1.75 15.8245 1.75 10.9998C1.75 6.17501 5.67525 2.24976 10.5 2.24976" fill="white"/>
<path d="M9.23774 7.30668C9.40486 7.30668 9.57286 7.37056 9.70061 7.49831L12.7517 10.5346C12.8751 10.6579 12.9442 10.8251 12.9442 11.0001C12.9442 11.1742 12.8751 11.3413 12.7517 11.4647L9.70061 14.5027C9.44424 14.7582 9.02949 14.7582 8.77311 14.5009C8.51761 14.2437 8.51849 13.8281 8.77486 13.5726L11.3587 11.0001L8.77486 8.42756C8.51849 8.17206 8.51761 7.75731 8.77311 7.50006C8.90086 7.37056 9.06974 7.30668 9.23774 7.30668" fill="white"/>
</svg>
