<svg width="41" height="32" viewBox="0 0 41 32" fill="none" xmlns="http://www.w3.org/2000/svg">
<g clip-path="url(#clip0_2_269)">
<path d="M40.2559 15.0002V30.0002C40.2559 31.1045 39.3673 32.0002 38.2716 32.0002H2.55459C1.4589 32.0002 0.570312 31.1045 0.570312 30.0002V9.00017C0.570312 7.34329 1.90288 6.00017 3.54673 6.00017H4.53887V1.50079C4.53887 0.672668 5.20547 0.0570435 6.02708 0.0570435C6.8487 0.0570435 7.51529 0.672043 7.51529 1.50079V6.00079H11.4838V1.50079C11.4838 0.672668 12.1504 0.0570435 12.9721 0.0570435C13.7937 0.0570435 14.4603 0.672043 14.4603 1.50079V5.94454H18.4288V3.00079C18.4288 1.34392 19.7614 0.000793457 21.4052 0.000793457L27.3581 0.00109971C29.0019 0.00109971 30.3345 1.34422 30.3345 3.0011V11.9448H37.2795C38.9227 12.0002 40.2559 13.3439 40.2559 15.0002ZM8.50743 10.7502C8.50743 10.3361 8.17413 10.0002 7.76333 10.0002H5.28298C4.87217 10.0002 4.53887 10.3361 4.53887 10.7502V13.2502C4.53887 13.6642 4.87217 14.0002 5.28298 14.0002H7.76333C8.17413 14.0002 8.50743 13.6642 8.50743 13.2502V10.7502ZM8.50743 16.7502C8.50743 16.3361 8.17413 16.0002 7.76333 16.0002H5.28298C4.87217 16.0002 4.53887 16.3361 4.53887 16.7502V19.2502C4.53887 19.6642 4.87217 20.0002 5.28298 20.0002H7.76333C8.17413 20.0002 8.50743 19.6642 8.50743 19.2502V16.7502ZM8.50743 22.7502C8.50743 22.3361 8.17413 22.0002 7.76333 22.0002H5.28298C4.87217 22.0002 4.53887 22.3361 4.53887 22.7502V25.2502C4.53887 25.6642 4.87217 26.0002 5.28298 26.0002H7.76333C8.17413 26.0002 8.50743 25.6642 8.50743 25.2502V22.7502ZM16.4445 10.7502C16.4445 10.3361 16.1113 10.0002 15.7004 10.0002H13.2201C12.8093 10.0002 12.476 10.3361 12.476 10.7502V13.2502C12.476 13.6642 12.8093 14.0002 13.2201 14.0002H15.7004C16.1113 14.0002 16.4445 13.6642 16.4445 13.2502V10.7502ZM16.4445 16.7502C16.4445 16.3361 16.1113 16.0002 15.7004 16.0002H13.2201C12.8108 16.0002 12.476 16.3377 12.476 16.7502V19.2502C12.476 19.6642 12.8093 20.0002 13.2201 20.0002H15.7004C16.1113 20.0002 16.4445 19.6642 16.4445 19.2502V16.7502ZM16.4445 22.7502C16.4445 22.3361 16.1113 22.0002 15.7004 22.0002H13.2201C12.8093 22.0002 12.476 22.3364 12.476 22.7502V25.2502C12.476 25.6642 12.8093 26.0002 13.2201 26.0002H15.7004C16.1113 26.0002 16.4445 25.6642 16.4445 25.2502V22.7502ZM26.3659 4.75079C26.3659 4.33673 26.0326 4.00079 25.6218 4.00079H23.1415C22.7307 4.00079 22.3974 4.33673 22.3974 4.75079V7.25079C22.3974 7.66486 22.7307 8.00079 23.1415 8.00079H25.6218C26.0326 8.00079 26.3659 7.66486 26.3659 7.25079V4.75079ZM26.3659 10.7502C26.3659 10.3361 26.0326 10.0002 25.6218 10.0002H23.1415C22.7307 10.0002 22.3974 10.3364 22.3974 10.7502V13.2502C22.3974 13.6642 22.7307 14.0002 23.1415 14.0002H25.6218C26.0326 14.0002 26.3659 13.6642 26.3659 13.2502V10.7502ZM26.3659 16.7502C26.3659 16.3361 26.0326 16.0002 25.6218 16.0002H23.1415C22.7307 16.0002 22.3974 16.3364 22.3974 16.7502V19.2502C22.3974 19.6642 22.7307 20.0002 23.1415 20.0002H25.6218C26.0326 20.0002 26.3659 19.6642 26.3659 19.2502V16.7502ZM36.2873 16.7502C36.2873 16.3361 35.954 16.0002 35.5432 16.0002H33.0629C32.6521 16.0002 32.3188 16.3361 32.3188 16.7502V19.2502C32.3188 19.6642 32.6521 20.0002 33.0629 20.0002H35.5432C35.954 20.0002 36.2873 19.6642 36.2873 19.2502V16.7502ZM36.2873 22.7502C36.2873 22.3361 35.954 22.0002 35.5432 22.0002H33.0629C32.6521 22.0002 32.3188 22.3361 32.3188 22.7502V25.2502C32.3188 25.6642 32.6521 26.0002 33.0629 26.0002H35.5432C35.954 26.0002 36.2873 25.6642 36.2873 25.2502V22.7502Z" fill="#F4730E"/>
</g>
<defs>
<clipPath id="clip0_2_269">
<rect width="39.6856" height="32" fill="white" transform="translate(0.570312)"/>
</clipPath>
</defs>
</svg>
