<svg width="54" height="59" viewBox="0 0 54 59" fill="none" xmlns="http://www.w3.org/2000/svg">
<path d="M17.8664 51.2777C11.7138 51.2317 3.69676 46.6605 0.983792 38.0937C-0.638364 32.9692 -0.263299 27.9778 2.17462 23.1989C4.60004 18.4438 8.43196 15.3139 13.4672 13.5841C12.5749 12.0809 11.7153 10.6238 10.8496 9.17301C10.1526 8.00603 9.44464 6.84699 8.74764 5.68001C8.5101 5.28203 8.7117 4.35923 9.11177 4.09603C11.756 2.37411 14.4393 0.720361 17.5679 0.0449097C18.0461 -0.0581521 18.5728 0.0417386 19.0729 0.0908911C20.9748 0.281159 22.8782 0.461913 24.7707 0.714018C25.2083 0.772684 25.6256 1.07236 26.0272 1.30702C27.3446 2.0776 28.6511 2.86722 29.9607 3.65207C30.5155 3.98504 30.6561 4.5828 30.2858 5.14092C28.6573 7.6033 27.0211 10.0609 25.388 12.5201C25.1599 12.8626 24.9364 13.2083 24.7254 13.5286C25.8725 14.0486 27.0164 14.5005 28.101 15.0697C30.9468 16.5665 33.2238 18.7134 34.9928 21.4215C36.579 23.8506 37.5901 26.5064 37.9808 29.3874C38.4106 32.5538 38.098 35.6488 37.0166 38.6661C35.9696 41.5867 34.3349 44.1189 32.0736 46.1912C30.9546 47.2171 29.6403 48.0241 28.4011 48.9105C28.2792 48.9977 28.001 49.0135 27.8853 48.9327C26.6664 48.0653 25.6053 47.0379 24.8504 45.7885C25.9491 45.0781 27.0774 44.4756 28.0619 43.6892C31.2625 41.1348 33.1425 37.7845 33.5598 33.6637C34.0692 28.6279 32.4064 24.3564 28.7152 21.0124C25.5552 18.1505 21.7577 16.9137 17.5085 17.4322C12.2295 18.0775 8.30069 20.8459 5.99716 25.6677C3.62331 30.6352 4.02651 35.5838 6.96295 40.2358C8.85078 43.2278 11.5809 45.1654 14.919 46.2356C15.1128 46.2974 15.3207 46.4687 15.4191 46.6479C16.2364 48.1288 17.0288 49.6224 17.8273 51.1128C17.8539 51.1588 17.8539 51.219 17.8664 51.2777ZM23.3939 7.58903C22.7845 7.70478 22.2703 7.78564 21.7655 7.90773C21.628 7.94103 21.4217 8.07739 21.4092 8.18838C21.242 9.51074 21.106 10.8379 20.9607 12.1729C21.2561 12.2332 21.478 12.2791 21.7218 12.3283C22.2781 10.7538 22.8188 9.21899 23.3939 7.58903ZM28.1713 4.72233C27.9854 4.74928 27.8166 4.76355 27.6525 4.79844C25.7271 5.19641 23.8065 5.63244 21.8718 5.97968C21.2045 6.0986 20.8997 6.48072 20.5763 7.09275C22.8938 6.57268 25.1099 6.05579 27.3368 5.5928C27.8416 5.48816 28.0963 5.26935 28.1713 4.72233ZM15.0831 8.00921C15.6363 9.52659 16.1692 10.9631 16.6818 12.406C16.8365 12.8436 17.071 12.9958 17.5617 12.7564C17.3554 11.7416 17.1507 10.7221 16.9397 9.70418C16.649 8.29778 16.6474 8.29778 15.0831 8.00921ZM26.0928 3.51571C26.1085 3.4729 26.1241 3.43168 26.1397 3.38887C25.5318 2.97504 24.9254 2.55803 24.3128 2.15371C24.2238 2.09505 24.0816 2.04431 23.9909 2.07443C23.022 2.39313 22.0578 2.72927 21.092 3.06066C21.0998 3.10505 21.1076 3.14945 21.1154 3.19384C22.7735 3.30166 24.4332 3.40948 26.0928 3.51571ZM11.2043 6.45852C12.3451 8.3945 13.4172 10.2116 14.4893 12.0286C14.1408 10.7285 13.6047 9.49488 13.2891 8.20582C13.0109 7.07372 12.1936 6.82637 11.2043 6.45852ZM27.4884 6.61867C26.246 6.68209 25.4865 7.22435 25.2771 8.42938C25.2474 8.59904 25.1395 8.75442 25.077 8.91932C24.7535 9.77394 24.4316 10.6301 24.1097 11.4864C24.1378 11.4975 24.1659 11.5101 24.1941 11.5212C25.2849 9.89762 26.3757 8.27558 27.4884 6.61867ZM17.3351 7.49231C17.3601 7.4495 17.3835 7.40511 17.4085 7.3623C17.1178 7.08324 16.8725 6.65513 16.5302 6.5489C14.7002 5.98127 12.8452 5.49291 10.9996 4.9776C10.9668 5.03468 10.9355 5.09177 10.9027 5.15043C11.1262 5.32009 11.3262 5.56268 11.5778 5.6483C12.8859 6.09384 14.208 6.50133 15.5254 6.91992C16.1286 7.11178 16.7318 7.30204 17.3351 7.49231ZM19.0338 3.46815C19.0291 3.42851 19.026 3.38887 19.0213 3.34923C17.3851 3.13835 15.7504 2.92588 14.1142 2.715C14.5252 3.22238 14.98 3.61719 15.4472 3.99297C15.541 4.06908 15.6988 4.12933 15.8114 4.10713C16.8881 3.90576 17.9602 3.68378 19.0338 3.46815ZM13.2172 4.70964C13.264 4.01834 13.3047 3.42058 13.3516 2.72769C12.442 3.1542 11.6013 3.54742 10.612 4.00882C11.57 4.26727 12.3483 4.47498 13.2172 4.70964ZM21.1404 5.63403C21.878 5.2963 22.525 4.9998 23.2408 4.67159C22.7282 4.4623 22.2844 4.27837 21.839 4.09762C21.3873 3.91369 20.9341 3.73294 20.384 3.51096C20.6544 4.27361 20.8826 4.9126 21.1404 5.63403ZM25.549 1.74622C25.5193 1.77635 25.4912 1.80647 25.4615 1.8366C25.7131 2.1331 25.9647 2.4296 26.2179 2.72452C26.9024 3.5284 27.0446 3.56645 28.1432 3.2097C27.2524 2.70866 26.4007 2.22823 25.549 1.74622ZM17.4492 5.66733C19.2041 5.44693 19.7667 4.96333 19.8199 3.68695C19.0526 4.32752 18.3055 4.95224 17.4492 5.66733ZM16.1896 1.06443C16.1864 1.03747 16.1817 1.01052 16.1786 0.983564C15.466 1.20871 14.7502 1.41801 14.047 1.67011C13.9126 1.71768 13.8313 1.92539 13.7266 2.05858C13.7719 2.10614 13.8157 2.15213 13.861 2.19969C14.6377 1.82074 15.4129 1.44338 16.1896 1.06443Z" fill="#673622"/>
<path d="M36.4318 19.4888C37.3944 19.6505 38.354 19.7615 39.2901 19.9803C42.4109 20.7097 45.1802 22.1604 47.5665 24.3232C50.7171 27.1772 52.7643 30.6924 53.6035 34.9084C54.3302 38.5504 54.0629 42.1259 52.7299 45.5761C50.8546 50.4279 47.5743 54.0018 42.886 56.1898C38.5134 58.2321 33.9626 58.5809 29.4165 57.0667C22.6763 54.8199 18.3224 50.1615 16.5689 43.1327C15.5485 39.0404 15.9407 35.0352 17.5566 31.1744C19.2178 27.2073 21.9699 24.1836 25.6221 21.9876C25.9956 21.7625 26.2503 21.791 26.6051 22.0732C27.6881 22.9358 28.6367 23.9125 29.4102 25.1128C28.632 25.552 27.8443 25.9388 27.1176 26.4193C24.0499 28.4488 22.0168 31.2663 21.0588 34.8497C20.043 38.6487 20.4384 42.3304 22.3215 45.7584C24.6954 50.0807 28.3804 52.6318 33.225 53.2645C40.8857 54.2634 47.8791 48.9724 49.2512 41.2507C50.2904 35.4047 47.7212 29.4636 42.7344 26.3527C41.6639 25.6852 40.4575 25.246 39.3182 24.6894C39.14 24.6022 38.9322 24.4849 38.8447 24.3216C38.0242 22.7994 37.2257 21.2646 36.4224 19.7329C36.4068 19.7012 36.4224 19.6553 36.4318 19.4888Z" fill="#673622"/>
<path d="M23.3942 7.58911C22.8191 9.21907 22.2784 10.7539 21.722 12.3284C21.4767 12.2776 21.2563 12.2332 20.9609 12.173C21.1063 10.8379 21.2422 9.51082 21.4095 8.18845C21.4235 8.07905 21.6282 7.94111 21.7658 7.90781C22.2705 7.78731 22.7847 7.70486 23.3942 7.58911Z" fill="white"/>
<path d="M28.1712 4.72241C28.0962 5.26943 27.8431 5.48824 27.3367 5.59289C25.1098 6.05587 22.8938 6.57277 20.5762 7.09283C20.8997 6.4808 21.206 6.09868 21.8717 5.97977C23.8064 5.63253 25.7255 5.1965 27.6524 4.79852C27.8165 4.76364 27.9837 4.74937 28.1712 4.72241Z" fill="white"/>
<path d="M15.083 8.00928C16.6473 8.29944 16.6489 8.29944 16.9396 9.70425C17.1506 10.7222 17.3537 11.7401 17.5616 12.7565C17.0709 12.9959 16.8364 12.8453 16.6817 12.4061C16.1707 10.9616 15.6378 9.52667 15.083 8.00928Z" fill="white"/>
<path d="M26.0927 3.51567C24.433 3.40785 22.7749 3.30003 21.1152 3.1938C21.1074 3.1494 21.0996 3.10501 21.0918 3.06061C22.0576 2.72923 23.0203 2.39309 23.9907 2.07439C24.0814 2.04426 24.2236 2.095 24.3127 2.15367C24.9268 2.55799 25.5316 2.97658 26.1395 3.38882C26.1224 3.43163 26.1083 3.47445 26.0927 3.51567Z" fill="white"/>
<path d="M11.2041 6.4585C12.1933 6.82635 13.0122 7.0737 13.2904 8.20421C13.6076 9.49327 14.1421 10.7268 14.4906 12.027C13.417 10.2115 12.3449 8.39447 11.2041 6.4585Z" fill="white"/>
<path d="M27.4881 6.61865C26.3754 8.27557 25.2846 9.89919 24.1938 11.5212C24.1656 11.5101 24.1375 11.4974 24.1094 11.4863C24.4313 10.6301 24.7517 9.77551 25.0767 8.91931C25.1392 8.75441 25.2471 8.59902 25.2768 8.42937C25.4862 7.22434 26.2457 6.68207 27.4881 6.61865Z" fill="white"/>
<path d="M17.3351 7.49225C16.7319 7.30198 16.1286 7.11171 15.527 6.91986C14.2096 6.50127 12.8875 6.09536 11.5794 5.64823C11.3278 5.56261 11.1278 5.32002 10.9043 5.15037C10.9371 5.09329 10.9684 5.03621 11.0012 4.97754C12.8468 5.49285 14.7018 5.97962 16.5318 6.54884C16.8741 6.65507 17.1194 7.08317 17.4101 7.36223C17.3835 7.40504 17.3601 7.44944 17.3351 7.49225Z" fill="white"/>
<path d="M19.0339 3.46823C17.9602 3.68387 16.8882 3.90585 15.8114 4.10722C15.6989 4.12783 15.5411 4.06916 15.4473 3.99305C14.9785 3.61728 14.5253 3.22247 14.1143 2.71509C15.7505 2.92597 17.3851 3.13843 19.0214 3.34931C19.026 3.38895 19.0307 3.42859 19.0339 3.46823Z" fill="white"/>
<path d="M13.2169 4.70962C12.3464 4.47654 11.5697 4.26725 10.6133 4.01039C11.601 3.5474 12.4417 3.15418 13.3528 2.72925C13.3059 3.41897 13.2653 4.01831 13.2169 4.70962Z" fill="white"/>
<path d="M21.1402 5.63394C20.8823 4.91251 20.6541 4.27352 20.3838 3.51245C20.9339 3.73443 21.3871 3.91519 21.8387 4.09911C22.2841 4.27987 22.7279 4.46221 23.2405 4.67309C22.5248 4.99971 21.8762 5.29621 21.1402 5.63394Z" fill="white"/>
<path d="M25.5494 1.74634C26.4011 2.22676 27.2528 2.70719 28.1436 3.2114C27.0434 3.56815 26.9012 3.52852 26.2183 2.72622C25.9667 2.42972 25.7151 2.13322 25.4619 1.8383C25.4916 1.80659 25.5213 1.77646 25.5494 1.74634Z" fill="white"/>
<path d="M17.4492 5.66738C18.3056 4.95229 19.0526 4.32917 19.8199 3.68701C19.7668 4.96339 19.2042 5.44699 17.4492 5.66738Z" fill="white"/>
<path d="M16.1895 1.06451C15.4128 1.44346 14.6361 1.82082 13.861 2.19977C13.8156 2.1522 13.7719 2.10622 13.7266 2.05866C13.8313 1.92547 13.9125 1.71935 14.0469 1.67019C14.7502 1.41967 15.4659 1.20879 16.1785 0.983643C16.1832 1.0106 16.1864 1.03755 16.1895 1.06451Z" fill="white"/>
</svg>
