<svg width="67" height="50" viewBox="0 0 67 50" fill="none" xmlns="http://www.w3.org/2000/svg">
<path d="M12.8682 45.9163C12.8682 43.6469 12.8682 41.3273 12.8682 39.0092C12.8682 36.486 12.8545 33.9629 12.8864 31.4397C12.891 31.1085 13.0584 30.7212 13.2745 30.4629C14.2758 29.2659 15.2528 28.0355 16.3699 26.9509C17.7912 25.5716 19.59 25.0733 21.5379 25.4212C23.4387 25.7614 25.3212 26.208 27.196 26.6698C29.2627 27.1772 31.1923 26.6729 33.0977 25.9696C34.8888 25.3088 36.6526 24.5766 38.4407 23.9082C40.1984 23.252 42.2027 23.8353 43.2588 25.2677C44.3789 26.7868 44.423 28.8406 43.2573 30.3019C42.8327 30.8351 42.2377 31.2802 41.6381 31.6189C39.8682 32.62 38.0542 33.5451 36.2615 34.5052C36.0682 34.6084 35.8887 34.7391 35.6193 34.9107C36.7957 34.9107 37.8594 34.8864 38.9232 34.9153C41.5285 34.9852 44.1354 35.0247 46.7362 35.1796C48.7145 35.2966 50.5361 34.8439 52.3045 34.0358C54.3163 33.1167 56.3084 32.1521 58.3431 31.2847C60.6197 30.3141 62.837 30.4796 64.8412 31.9957C66.2352 33.0484 66.2245 34.534 64.7666 35.4682C63.5218 36.2673 62.1689 36.9083 60.8358 37.5645C57.3204 39.2963 53.9572 41.3394 50.2272 42.626C46.412 43.9431 42.4949 44.7953 38.4925 45.3148C32.1754 46.1351 25.8295 45.9179 19.4881 45.9133C17.3119 45.9148 15.1372 45.9163 12.8682 45.9163Z" fill="#673622"/>
<path d="M0 28.9995C0.919889 28.9995 1.82308 28.9995 2.72627 28.9995C4.59489 28.9995 6.46351 28.9995 8.33213 28.9995C9.67553 28.9995 9.99886 29.2632 9.99886 30.3799C10.0004 36.0254 10.0004 41.6696 9.99886 47.3151C9.99886 48.3361 9.69527 48.7045 8.48696 48.8919C5.9216 49.2887 3.3456 49.6389 0.772647 49.9995C2.30714 46.2053 4.80167 39.5196 0 28.9995Z" fill="#673622"/>
<path d="M59.4394 14.5644C59.6707 13.9689 59.8244 13.4342 60.0786 12.9527C60.3342 12.4666 60.6904 12.0336 61.0419 11.5187C59.8138 11.2954 59.5368 10.2974 59.2522 9.28567C58.6496 7.14228 58.0485 4.99888 57.3956 2.87068C57.1856 2.18558 57.4474 1.8605 58.0348 1.68429C59.8625 1.13743 61.6917 0.601201 63.5255 0.0771256C64.259 -0.132505 64.6334 0.0786447 64.8403 0.791084C65.5282 3.14715 66.2024 5.50625 66.8933 7.86079C67.1002 8.56563 67.012 9.19453 66.5341 9.76721C66.2602 10.0953 66.0106 10.4462 65.7397 10.7774C65.2938 11.3242 64.9986 11.824 65.1143 12.6534C65.3304 14.215 64.1007 16.0257 62.2837 17.2045C63.282 19.8963 61.6643 21.5521 59.8229 23.0894C59.1685 23.6362 58.4457 24.1041 57.735 24.5811C57.2023 24.9396 56.6941 24.9107 56.1279 24.534C55.6897 24.2408 55.1464 24.2074 54.734 24.6965C54.425 25.0626 54.1496 25.4652 53.8041 25.7918C51.6888 27.7878 49.8505 30.0239 47.9938 32.2523C47.7671 32.5243 46.9088 32.6549 46.6851 32.4605C46.3472 32.1658 46.2392 31.5369 46.6531 31.0417C47.9786 29.4542 49.4517 27.961 50.5627 26.2353C51.3236 25.055 52.2275 24.0054 52.9915 22.8494C53.1452 22.6169 52.958 21.9698 52.716 21.7085C52.2275 21.1845 52.1454 20.6862 52.4102 20.0664C53.1619 18.3059 53.9122 16.5255 55.4036 15.2419C56.5723 14.2348 57.945 13.9674 59.4394 14.5644ZM64.536 12.5456C63.7051 12.3253 62.9776 12.1081 62.2365 11.9471C61.9778 11.8909 61.5213 11.8741 61.4391 12.0093C60.9506 12.8099 60.5321 13.656 60.1273 14.5052C60.0695 14.6267 60.1577 14.9001 60.2703 15.0064C60.8486 15.5518 61.4589 16.0668 62.0798 16.6121C63.6046 15.9695 64.6516 14.1998 64.536 12.5456ZM57.7015 15.845C57.8978 16.126 57.9876 16.4116 58.1398 16.4496C59.1685 16.7002 59.8747 17.2805 60.3205 18.2451C60.386 18.3879 60.8532 18.4304 61.1012 18.3742C61.2702 18.3362 61.5182 18.0157 61.4878 17.8744C61.4421 17.6648 61.2078 17.3868 61.0054 17.3382C60.1668 17.1362 59.8199 16.5787 59.5155 15.8252C59.3846 15.5017 58.7576 15.3194 58.3209 15.21C58.1854 15.1751 57.9359 15.5943 57.7015 15.845ZM64.5573 10.9217C64.6106 10.8913 64.6638 10.8609 64.7171 10.8306C64.5071 10.5526 64.3534 10.147 64.0749 10.027C63.6959 9.86443 63.2014 9.87051 62.9776 10.3733C63.527 10.5647 64.0414 10.7424 64.5573 10.9217ZM62.8939 11.1055C63.0979 11.5886 63.562 11.8711 63.9394 11.7511C64.0612 11.7116 64.1357 11.5293 64.2331 11.4124C63.9029 11.2984 63.5757 11.1754 63.2409 11.0736C63.1542 11.0463 63.0461 11.0888 62.8939 11.1055Z" fill="#673622"/>
</svg>
