<svg width="58" height="46" viewBox="0 0 58 46" fill="none" xmlns="http://www.w3.org/2000/svg">
<path d="M10.368 12.2847L19.541 15.6403C22.6972 8.30727 27.29 2.66688 32.0293 0.0344621C23.4151 -0.403526 15.0668 3.35509 9.70312 10.07C9.09219 10.8292 9.45156 11.9612 10.368 12.2847ZM22.2453 16.6151L43.673 24.4199C46.885 13.5128 45.3459 3.61204 39.843 1.60852C39.1804 1.37268 38.4846 1.24358 37.7658 1.24358C32.5594 1.24106 26.2434 7.46274 22.2453 16.6151ZM46.8535 5.43048C47.415 6.89044 47.8193 8.54087 48.0332 10.3943C48.5498 14.8749 47.9095 20.1065 46.3369 25.3893L55.5549 28.7467C56.465 29.0836 57.4641 28.4435 57.4865 27.4781C57.7066 18.8702 53.7266 10.6315 46.8535 5.43048ZM47.4375 40.244H28.8398L34.6797 24.2069L29.2774 22.242L22.7296 40.2467H4.3125C1.93074 40.244 0 42.1757 0 44.5565C0 45.3472 0.643551 45.994 1.4375 45.994H50.3125C51.1064 45.994 51.75 45.3505 51.75 44.6374C51.75 42.1757 49.8184 40.244 47.4375 40.244Z" fill="#673622"/>
</svg>
