<svg width="11" height="12" viewBox="0 0 11 12" fill="none" xmlns="http://www.w3.org/2000/svg">
<path d="M3.63954 10.4457C2.38619 10.4363 0.753061 9.50514 0.200407 7.76001C-0.13004 6.71609 -0.0536363 5.69931 0.442989 4.72581C0.937067 3.75716 1.71766 3.11957 2.74338 2.76718C2.5616 2.46099 2.38651 2.16416 2.21015 1.86862C2.06816 1.6309 1.92395 1.39479 1.78197 1.15707C1.73358 1.07599 1.77464 0.888012 1.85614 0.834395C2.39479 0.483625 2.9414 0.146743 3.57873 0.00914847C3.67615 -0.0118461 3.78343 0.00850249 3.8853 0.0185153C4.27273 0.0572744 4.66048 0.0940956 5.046 0.145451C5.13514 0.157402 5.22014 0.218448 5.30196 0.266251C5.57033 0.423225 5.83647 0.584076 6.10324 0.743957C6.21626 0.811786 6.24491 0.933554 6.16946 1.04725C5.83774 1.54886 5.50443 2.04949 5.17175 2.55046C5.12527 2.62022 5.07975 2.69063 5.03677 2.75588C5.27044 2.86182 5.50347 2.95387 5.72441 3.06983C6.30412 3.37473 6.76796 3.81207 7.12833 4.36374C7.45145 4.85856 7.65742 5.39958 7.73701 5.98645C7.82456 6.63147 7.76089 7.26195 7.54059 7.87661C7.3273 8.47156 6.9943 8.98738 6.53365 9.40953C6.30571 9.61851 6.03798 9.78291 5.78553 9.96346C5.7607 9.98123 5.70403 9.98446 5.68047 9.96799C5.43216 9.79131 5.216 9.58201 5.06224 9.32749C5.28604 9.18279 5.51589 9.06005 5.71645 8.89985C6.36843 8.37951 6.7514 7.69702 6.8364 6.85757C6.94018 5.83174 6.60146 4.9616 5.84952 4.28041C5.20582 3.6974 4.43223 3.44547 3.56663 3.55109C2.49125 3.68255 1.69092 4.24649 1.22167 5.22871C0.738099 6.24065 0.820233 7.24871 1.41841 8.19637C1.80298 8.80586 2.35913 9.20056 3.03913 9.41858C3.0786 9.43117 3.12094 9.46606 3.141 9.50255C3.3075 9.80423 3.4689 10.1085 3.63158 10.4121C3.63699 10.4215 3.63699 10.4337 3.63954 10.4457ZM4.76554 1.54595C4.64138 1.56953 4.53664 1.586 4.43382 1.61087C4.4058 1.61765 4.36378 1.64543 4.36123 1.66804C4.32717 1.93742 4.29947 2.20776 4.26987 2.47972C4.33004 2.49199 4.37524 2.50136 4.4249 2.51137C4.53824 2.19064 4.64839 1.87799 4.76554 1.54595ZM5.73873 0.961977C5.70085 0.967468 5.66647 0.970375 5.63304 0.977481C5.24083 1.05855 4.84958 1.14738 4.45547 1.21811C4.31953 1.24234 4.25745 1.32018 4.19155 1.44485C4.66367 1.33891 5.11509 1.23361 5.56873 1.1393C5.67156 1.11798 5.72345 1.07341 5.73873 0.961977ZM3.07256 1.63154C3.18525 1.94065 3.29381 2.23328 3.39823 2.5272C3.42974 2.61635 3.4775 2.64735 3.57746 2.59858C3.53544 2.39187 3.49373 2.18418 3.45075 1.97682C3.39154 1.69033 3.39122 1.69033 3.07256 1.63154ZM5.31533 0.71618C5.31851 0.707459 5.32169 0.699061 5.32488 0.69034C5.20104 0.606039 5.07752 0.521092 4.95273 0.438729C4.93458 0.426778 4.90561 0.416442 4.88715 0.422579C4.68977 0.487501 4.49335 0.555975 4.29661 0.623481C4.2982 0.632525 4.29979 0.641568 4.30138 0.650612C4.63915 0.672576 4.97724 0.694539 5.31533 0.71618ZM2.28241 1.31565C2.51481 1.71003 2.73319 2.08018 2.95158 2.45033C2.88059 2.18547 2.7714 1.93419 2.70709 1.67159C2.65042 1.44098 2.48393 1.39059 2.28241 1.31565ZM5.59961 1.34828C5.34653 1.3612 5.19181 1.47166 5.14915 1.71713C5.1431 1.75169 5.12113 1.78335 5.1084 1.81694C5.0425 1.99103 4.97692 2.16545 4.91134 2.33986C4.91707 2.34213 4.9228 2.34471 4.92853 2.34697C5.15074 2.01623 5.37295 1.6858 5.59961 1.34828ZM3.5313 1.52625C3.53639 1.51753 3.54117 1.50848 3.54626 1.49976C3.48705 1.44291 3.43707 1.35571 3.36735 1.33407C2.99456 1.21843 2.61668 1.11895 2.24071 1.01398C2.23402 1.02561 2.22766 1.03723 2.22097 1.04919C2.26649 1.08375 2.30724 1.13316 2.3585 1.15061C2.62496 1.24137 2.89428 1.32438 3.16265 1.40965C3.28553 1.44873 3.40841 1.48749 3.5313 1.52625ZM3.87734 0.70649C3.87639 0.698415 3.87575 0.69034 3.8748 0.682266C3.54148 0.639307 3.20849 0.596026 2.87518 0.553068C2.9589 0.656426 3.05154 0.736851 3.14673 0.813401C3.16583 0.828904 3.19799 0.841178 3.22091 0.836656C3.44025 0.795636 3.65864 0.750417 3.87734 0.70649ZM2.69245 0.959393C2.702 0.818569 2.71027 0.6968 2.71982 0.555652C2.53454 0.642537 2.36327 0.72264 2.16176 0.816631C2.35691 0.869278 2.51544 0.91159 2.69245 0.959393ZM4.30648 1.1477C4.45674 1.0789 4.58854 1.0185 4.73434 0.951642C4.62992 0.909006 4.53951 0.871539 4.44878 0.834718C4.35678 0.797251 4.26446 0.76043 4.1524 0.715211C4.20747 0.87057 4.25395 1.00074 4.30648 1.1477ZM5.20454 0.35572C5.19849 0.361857 5.19276 0.367994 5.18671 0.37413C5.23797 0.43453 5.28922 0.49493 5.3408 0.555006C5.48023 0.718764 5.5092 0.726516 5.733 0.653842C5.55154 0.551776 5.37804 0.45391 5.20454 0.35572ZM3.55454 1.15448C3.91204 1.10959 4.02665 1.01107 4.03747 0.751063C3.88116 0.881552 3.72899 1.00881 3.55454 1.15448ZM3.29795 0.216833C3.29731 0.211342 3.29636 0.205851 3.29572 0.20036C3.15055 0.246225 3.00475 0.28886 2.86149 0.340216C2.83411 0.349906 2.81756 0.392218 2.79623 0.419349C2.80546 0.429039 2.81437 0.438406 2.82361 0.448096C2.98183 0.3709 3.13973 0.294028 3.29795 0.216833Z" fill="black"/>
<path d="M7.42147 3.96997C7.61757 4.00292 7.81304 4.02553 8.00373 4.0701C8.63947 4.21868 9.20359 4.51421 9.68971 4.95478C10.3315 5.53616 10.7485 6.25224 10.9195 7.11108C11.0675 7.85299 11.0131 8.58134 10.7415 9.28417C10.3595 10.2725 9.6913 11.0006 8.73625 11.4463C7.84551 11.8623 6.91848 11.9334 5.9924 11.6249C4.61936 11.1672 3.73244 10.2183 3.37525 8.78644C3.16737 7.95279 3.24727 7.13691 3.57644 6.35043C3.91485 5.5423 4.47546 4.92635 5.21945 4.47901C5.29553 4.43314 5.34742 4.43896 5.41969 4.49645C5.6403 4.67216 5.83354 4.87112 5.99112 5.11563C5.83259 5.2051 5.67214 5.28391 5.52411 5.38177C4.89919 5.7952 4.48501 6.36916 4.28987 7.09912C4.08294 7.87301 4.16348 8.623 4.54709 9.32131C5.03066 10.2018 5.78133 10.7215 6.76822 10.8504C8.32876 11.0538 9.75338 9.97602 10.0329 8.40305C10.2446 7.21217 9.72122 6.00192 8.70537 5.36821C8.4873 5.23223 8.24154 5.14276 8.00946 5.02939C7.97317 5.01162 7.93083 4.98772 7.913 4.95445C7.74587 4.64438 7.58319 4.33172 7.41956 4.01971C7.41637 4.01325 7.41956 4.00388 7.42147 3.96997Z" fill="black"/>
<path d="M4.76569 1.5459C4.64854 1.87794 4.53839 2.19059 4.42506 2.51132C4.37507 2.50099 4.33019 2.49194 4.27002 2.47967C4.29963 2.20771 4.32732 1.93737 4.36139 1.66799C4.36425 1.6457 4.40595 1.6176 4.43397 1.61082C4.5368 1.58627 4.64153 1.56948 4.76569 1.5459Z" fill="white"/>
<path d="M5.73858 0.961914C5.7233 1.07335 5.67173 1.11792 5.56859 1.13924C5.11494 1.23355 4.66352 1.33885 4.19141 1.44479C4.2573 1.32011 4.3197 1.24227 4.45532 1.21805C4.84943 1.14731 5.24037 1.05849 5.63289 0.977418C5.66632 0.970312 5.70038 0.967405 5.73858 0.961914Z" fill="white"/>
<path d="M3.07275 1.63159C3.39142 1.6907 3.39174 1.6907 3.45095 1.97687C3.49393 2.18423 3.53532 2.39159 3.57766 2.59863C3.47769 2.64741 3.42994 2.61672 3.39843 2.52725C3.29433 2.233 3.18577 1.9407 3.07275 1.63159Z" fill="white"/>
<path d="M5.3151 0.71608C4.97702 0.694117 4.63925 0.672153 4.30116 0.650513C4.29957 0.641469 4.29798 0.632425 4.29639 0.623381C4.49313 0.555876 4.68923 0.487401 4.88692 0.42248C4.90539 0.416343 4.93436 0.426679 4.9525 0.438629C5.07762 0.520993 5.20082 0.606263 5.32466 0.690241C5.32115 0.698962 5.31829 0.707682 5.3151 0.71608Z" fill="white"/>
<path d="M2.28223 1.31567C2.48374 1.39061 2.65056 1.441 2.70722 1.67129C2.77185 1.93388 2.88072 2.18517 2.95171 2.45003C2.73301 2.0802 2.51462 1.71005 2.28223 1.31567Z" fill="white"/>
<path d="M5.5994 1.34839C5.37274 1.68592 5.15053 2.01666 4.92832 2.34708C4.92259 2.34482 4.91686 2.34224 4.91113 2.33998C4.97671 2.16556 5.04197 1.99147 5.10819 1.81705C5.12093 1.78346 5.14289 1.75181 5.14894 1.71725C5.1916 1.47177 5.34632 1.36131 5.5994 1.34839Z" fill="white"/>
<path d="M3.5312 1.52618C3.40832 1.48742 3.28543 1.44867 3.16287 1.40958C2.8945 1.32431 2.62518 1.24163 2.35872 1.15054C2.30746 1.1331 2.26672 1.08368 2.22119 1.04912C2.22788 1.03749 2.23424 1.02587 2.24093 1.01392C2.6169 1.11889 2.99478 1.21805 3.36757 1.334C3.43729 1.35564 3.48727 1.44285 3.54648 1.4997C3.54107 1.50842 3.53629 1.51746 3.5312 1.52618Z" fill="white"/>
<path d="M3.87716 0.7064C3.65846 0.750327 3.44007 0.795546 3.22073 0.836566C3.19781 0.840765 3.16565 0.828815 3.14655 0.813311C3.05105 0.736762 2.95873 0.656336 2.875 0.552979C3.20831 0.595937 3.5413 0.639218 3.87462 0.682176C3.87557 0.690251 3.87653 0.698325 3.87716 0.7064Z" fill="white"/>
<path d="M2.69248 0.959571C2.51516 0.912091 2.35694 0.869456 2.16211 0.817131C2.36331 0.722817 2.53458 0.642714 2.72018 0.556152C2.71063 0.696654 2.70235 0.818746 2.69248 0.959571Z" fill="white"/>
<path d="M4.30642 1.14774C4.2539 1.00078 4.20742 0.870613 4.15234 0.715576C4.2644 0.760795 4.35672 0.797616 4.44873 0.835084C4.53946 0.871905 4.62987 0.909049 4.73429 0.952007C4.58848 1.01854 4.45637 1.07894 4.30642 1.14774Z" fill="white"/>
<path d="M5.20435 0.355713C5.37785 0.45358 5.55135 0.551447 5.73281 0.654159C5.50869 0.726832 5.47972 0.718757 5.3406 0.555323C5.28935 0.494923 5.2381 0.434523 5.18652 0.374446C5.19257 0.367987 5.19862 0.36185 5.20435 0.355713Z" fill="white"/>
<path d="M3.55469 1.15439C3.72914 1.00872 3.88131 0.881789 4.03762 0.750977C4.0268 1.01099 3.91219 1.1095 3.55469 1.15439Z" fill="white"/>
<path d="M3.29811 0.216912C3.13989 0.294107 2.98167 0.37098 2.82376 0.448175C2.81453 0.438485 2.80562 0.429118 2.79639 0.419429C2.81772 0.392297 2.83427 0.350308 2.86165 0.340295C3.00491 0.289262 3.15071 0.246304 3.29588 0.200439C3.29683 0.20593 3.29747 0.211421 3.29811 0.216912Z" fill="white"/>
</svg>
