<svg width="14" height="10" viewBox="0 0 14 10" fill="none" xmlns="http://www.w3.org/2000/svg">
<path d="M2.5621 9.14246C2.5621 8.69059 2.5621 8.22874 2.5621 7.76719C2.5621 7.2648 2.55938 6.76242 2.56574 6.26004C2.56665 6.1941 2.59998 6.11698 2.64301 6.06556C2.84239 5.82722 3.03692 5.58223 3.25932 5.36628C3.54233 5.09164 3.90048 4.99244 4.28833 5.0617C4.66679 5.12945 5.04161 5.21837 5.41491 5.31032C5.8264 5.41134 6.21061 5.31093 6.58997 5.17089C6.94661 5.03932 7.2978 4.89353 7.65383 4.76045C8.0038 4.62979 8.40286 4.74593 8.61315 5.03115C8.83616 5.33361 8.84495 5.74253 8.61284 6.0335C8.52831 6.13966 8.40983 6.22828 8.29045 6.29573C7.93805 6.49505 7.57686 6.67924 7.21992 6.8704C7.18144 6.89097 7.14569 6.91698 7.09205 6.95115C7.32628 6.95115 7.53808 6.94632 7.74988 6.95206C8.26863 6.96598 8.78768 6.97384 9.30552 7.00469C9.69943 7.02798 10.0621 6.93785 10.4142 6.77694C10.8148 6.59395 11.2114 6.40189 11.6165 6.22919C12.0698 6.03592 12.5113 6.06889 12.9104 6.37074C13.1879 6.58034 13.1858 6.87615 12.8955 7.06216C12.6477 7.22125 12.3783 7.34889 12.1129 7.47955C11.4129 7.82435 10.7433 8.23116 10.0006 8.48734C9.24098 8.74957 8.46104 8.91925 7.66413 9.02269C6.40635 9.18602 5.14281 9.14277 3.88018 9.14186C3.44688 9.14216 3.01389 9.14246 2.5621 9.14246Z" fill="black"/>
<path d="M0 5.77417C0.183158 5.77417 0.362991 5.77417 0.542825 5.77417C0.914883 5.77417 1.28694 5.77417 1.659 5.77417C1.92648 5.77417 1.99086 5.82667 1.99086 6.04901C1.99116 7.17308 1.99116 8.29689 1.99086 9.42095C1.99086 9.62425 1.93041 9.6976 1.68983 9.73491C1.17904 9.81391 0.666139 9.88365 0.153841 9.95545C0.459372 9.19998 0.956053 7.86881 0 5.77417Z" fill="black"/>
<path d="M11.8351 2.8999C11.8812 2.78133 11.9118 2.67487 11.9624 2.57899C12.0133 2.4822 12.0842 2.396 12.1542 2.29347C11.9097 2.24901 11.8545 2.05029 11.7979 1.84886C11.6779 1.42209 11.5582 0.99532 11.4282 0.571577C11.3864 0.435168 11.4385 0.370442 11.5555 0.335357C11.9194 0.226472 12.2836 0.119704 12.6487 0.0153564C12.7948 -0.0263828 12.8693 0.0156588 12.9105 0.157512C13.0475 0.626624 13.1817 1.09634 13.3193 1.56515C13.3605 1.70549 13.3429 1.83071 13.2478 1.94474C13.1932 2.01007 13.1435 2.07993 13.0896 2.14587C13.0008 2.25476 12.942 2.35426 12.965 2.51941C13.0081 2.83033 12.7632 3.19086 12.4015 3.42557C12.6002 3.96153 12.2781 4.29121 11.9115 4.59729C11.7812 4.70618 11.6373 4.79934 11.4958 4.89431C11.3897 4.96569 11.2885 4.95994 11.1758 4.88493C11.0885 4.82656 10.9804 4.8199 10.8982 4.91729C10.8367 4.99019 10.7819 5.07034 10.7131 5.13537C10.2919 5.5328 9.92589 5.97801 9.55622 6.42172C9.51107 6.47586 9.34018 6.50187 9.29563 6.46316C9.22837 6.40448 9.20685 6.27926 9.28927 6.18066C9.55319 5.86459 9.8465 5.56728 10.0677 5.22368C10.2192 4.98867 10.3992 4.77968 10.5513 4.5495C10.5819 4.50323 10.5446 4.37438 10.4964 4.32236C10.3992 4.21801 10.3828 4.1188 10.4355 3.9954C10.5852 3.64485 10.7346 3.29037 11.0316 3.03479C11.2643 2.83426 11.5376 2.78103 11.8351 2.8999ZM12.8499 2.49793C12.6845 2.45408 12.5396 2.41082 12.3921 2.37876C12.3406 2.36757 12.2496 2.36425 12.2333 2.39116C12.136 2.55056 12.0527 2.71903 11.9721 2.8881C11.9606 2.9123 11.9782 2.96674 12.0006 2.98791C12.1157 3.0965 12.2372 3.19903 12.3609 3.30761C12.6645 3.17967 12.8729 2.82731 12.8499 2.49793ZM11.4891 3.15487C11.5282 3.21083 11.5461 3.26769 11.5764 3.27525C11.7812 3.32515 11.9218 3.44069 12.0106 3.63275C12.0236 3.66119 12.1166 3.66965 12.166 3.65846C12.1997 3.6509 12.249 3.58708 12.243 3.55895C12.2339 3.51722 12.1872 3.46187 12.1469 3.45219C11.98 3.41196 11.9109 3.30096 11.8503 3.15094C11.8242 3.08651 11.6994 3.05022 11.6124 3.02844C11.5855 3.02149 11.5358 3.10496 11.4891 3.15487ZM12.8541 2.1746C12.8648 2.16856 12.8754 2.16251 12.886 2.15646C12.8441 2.10111 12.8135 2.02035 12.7581 1.99646C12.6826 1.96409 12.5842 1.9653 12.5396 2.06542C12.649 2.10353 12.7514 2.13891 12.8541 2.1746ZM12.523 2.2112C12.5636 2.30738 12.656 2.36364 12.7311 2.33975C12.7554 2.33188 12.7702 2.29559 12.7896 2.2723C12.7239 2.24961 12.6587 2.22511 12.592 2.20485C12.5748 2.19941 12.5533 2.20787 12.523 2.2112Z" fill="black"/>
</svg>
