<svg width="12" height="9" viewBox="0 0 12 9" fill="none" xmlns="http://www.w3.org/2000/svg">
<g clip-path="url(#clip0_3_1449)">
<path d="M2.02852 2.40474L3.82324 3.06128C4.44076 1.62656 5.33936 0.523002 6.2666 0.00796328C4.58121 -0.0777301 2.94785 0.657651 1.89844 1.97144C1.77891 2.11998 1.84922 2.34146 2.02852 2.40474ZM4.35234 3.25201L8.54473 4.77902C9.17314 2.64503 8.87203 0.707924 7.79537 0.315932C7.66573 0.269789 7.52959 0.24453 7.38897 0.24453C6.37031 0.244037 5.13457 1.46132 4.35234 3.25201ZM9.16699 1.06371C9.27686 1.34935 9.35596 1.67226 9.39779 2.0349C9.49887 2.91152 9.37361 3.93509 9.06592 4.96869L10.8694 5.62558C11.0475 5.6915 11.243 5.56625 11.2474 5.37738C11.2904 3.69322 10.5117 2.0813 9.16699 1.06371ZM9.28125 7.87505H5.64258L6.78516 4.73736L5.72818 4.35292L4.44709 7.87558H0.84375C0.377754 7.87505 0 8.25298 0 8.7188C0 8.87349 0.125912 9.00005 0.28125 9.00005H9.84375C9.99909 9.00005 10.125 8.87414 10.125 8.73462C10.125 8.25298 9.74707 7.87505 9.28125 7.87505Z" fill="black"/>
</g>
<defs>
<clipPath id="clip0_3_1449">
<rect width="11.25" height="9" fill="white"/>
</clipPath>
</defs>
</svg>
