<svg width="11" height="11" viewBox="0 0 11 11" fill="none" xmlns="http://www.w3.org/2000/svg">
<g clip-path="url(#clip0_3_1421)">
<path d="M0 9.49362C0.0324854 9.31063 0.05808 9.12634 0.0989328 8.94463C0.208448 8.45621 0.419357 8.01133 0.860125 7.67573C1.20934 7.40976 1.62599 7.26426 2.07513 7.19615C2.39285 7.14787 2.71598 7.12783 3.03591 7.09032C3.12869 7.07954 3.16314 7.11403 3.19464 7.18344C3.59259 8.05746 3.99398 8.93041 4.39439 9.80379C4.40645 9.83008 4.41851 9.85638 4.44263 9.90919C4.46502 9.85703 4.47979 9.8275 4.49086 9.79689C4.687 9.2507 4.88093 8.70409 5.08027 8.15898C5.10611 8.0885 5.09036 8.04043 5.0441 7.98331C4.80833 7.69169 4.577 7.39725 4.33286 7.08967C5.11719 7.08967 5.88256 7.08967 6.66689 7.08967C6.63982 7.12675 6.61841 7.15865 6.59429 7.18882C6.37944 7.45955 6.16263 7.72897 5.95098 8.00142C5.92539 8.0344 5.90742 8.08915 5.91948 8.12493C6.11464 8.70495 6.31521 9.28347 6.51505 9.86241C6.51726 9.86867 6.52391 9.87384 6.53793 9.89065C6.55565 9.85983 6.57239 9.83482 6.58469 9.80831C6.99371 8.93429 7.40323 8.06048 7.8088 7.18516C7.84375 7.1095 7.88435 7.0789 7.97886 7.09097C8.34653 7.13774 8.72061 7.158 9.08238 7.22784C10.0956 7.42312 10.683 7.99797 10.8752 8.87609C10.9527 9.22958 10.985 9.59342 10.9998 9.9538C11.0204 10.4601 10.5984 10.8871 10.0281 10.9778C10.0011 10.9822 9.97523 10.9921 9.9489 10.9996C6.98485 10.9996 4.02081 10.9996 1.05676 10.9996C1.03018 10.9925 1.00434 10.9832 0.977269 10.9783C0.519766 10.8966 0.213616 10.6623 0.0566033 10.278C0.0351925 10.2254 0.0189498 10.1709 0.000492203 10.1174C0 9.90962 0 9.70162 0 9.49362Z" fill="black"/>
<path d="M0 10.1177C0.0184576 10.1713 0.0344542 10.2257 0.0561111 10.2783C0.213124 10.6624 0.519274 10.8969 0.976777 10.9786C1.00385 10.9833 1.02993 10.9926 1.05627 10.9999C0.704096 10.9999 0.352171 10.9999 0 10.9999C0 10.7057 0 10.4117 0 10.1177Z" fill="white"/>
<path d="M8.49104 2.66983C8.4647 2.91188 8.27004 3.02159 8.06528 3.116C7.66586 3.30029 7.22952 3.38263 6.78826 3.44255C6.0155 3.54752 5.24029 3.55075 4.46384 3.47531C4.01101 3.43134 3.56631 3.35633 3.14104 3.21062C3.01627 3.16795 2.89494 3.11298 2.781 3.05112C2.62423 2.96577 2.49577 2.85605 2.48322 2.67004C2.38404 2.67004 2.29027 2.66379 2.19774 2.67133C1.9477 2.69138 1.75648 2.59676 1.64672 2.41419C1.46067 2.10446 1.29602 1.78438 1.13483 1.46386C1.09742 1.3895 1.08487 1.29121 1.10579 1.21319C1.12597 1.13796 1.18651 1.04377 1.26009 1.01122C2.05894 0.657519 2.86246 0.30834 3.72086 0.0794334C3.98493 0.00895097 4.27803 0.00183806 4.55809 0.000975887C5.35595 -0.00182617 6.15381 0.00765771 6.95143 0.024039C7.29302 0.0305052 7.60163 0.163711 7.90728 0.280104C8.50679 0.508363 9.09767 0.753435 9.69152 0.993119C9.84508 1.0552 9.92433 1.18086 9.88791 1.32764C9.85862 1.44576 9.81604 1.56345 9.75969 1.67359C9.64451 1.89883 9.52121 2.12127 9.39177 2.34069C9.26158 2.56119 9.06544 2.69504 8.76224 2.67112C8.67414 2.66401 8.58431 2.66983 8.49104 2.66983Z" fill="black"/>
<path d="M5.6076 6.56789C4.46052 6.54116 3.59055 6.22367 2.95339 5.50311C2.47103 4.95757 2.29359 4.32818 2.38071 3.64232C2.38293 3.62443 2.3849 3.60654 2.38933 3.58908C2.45184 3.34056 2.55126 3.29185 2.80499 3.41126C3.37029 3.67767 3.9661 3.86498 4.60646 3.90313C5.08267 3.93158 5.5633 3.92684 6.04074 3.91175C6.56198 3.89537 7.07264 3.807 7.5582 3.6337C7.77354 3.55697 7.98076 3.46234 8.18945 3.37246C8.37452 3.29271 8.4673 3.30715 8.54827 3.47657C8.60512 3.59555 8.63613 3.73134 8.64154 3.86088C8.69372 5.11341 7.74401 6.17539 6.29939 6.47564C6.0341 6.53082 5.7592 6.54828 5.6076 6.56789Z" fill="black"/>
</g>
<defs>
<clipPath id="clip0_3_1421">
<rect width="11" height="11" fill="white"/>
</clipPath>
</defs>
</svg>
