<svg width="41" height="36" viewBox="0 0 41 36" fill="none" xmlns="http://www.w3.org/2000/svg">
<path d="M34.1905 13.3333C36.5468 13.3333 40.6463 15.3472 40.6463 17.7778C40.6463 20.2778 36.5468 22.2222 34.1905 22.2222H26.1569L19.2326 34.4375C18.8399 35.125 18.1096 35.5556 17.3172 35.5556H13.4451C12.7148 35.5556 12.1843 34.8472 12.3841 34.1389L15.767 22.2222H8.67734L5.70092 26.2222C5.49284 26.5 5.16626 26.6667 4.81901 26.6667H1.92734C1.39365 26.6667 0.960693 26.2292 0.960693 25.6319C0.960693 25.6042 0.973219 25.5139 0.997885 25.4236L3.16545 17.7778L0.997885 10.1319C0.973219 10.0417 0.960693 9.95139 0.960693 9.86111C0.960693 9.32639 1.39365 8.88889 1.92734 8.88889H4.81901C5.16626 8.88889 5.49284 9.05556 5.70092 9.33333L8.67734 13.3333H15.767L12.3841 1.41667C12.1843 0.70625 12.7148 0 13.4451 0H17.3172C18.1096 0 18.8399 0.427292 19.2326 1.11944L26.1569 13.3333H34.1905Z" fill="#F4730E"/>
</svg>
