<svg width="56" height="56" viewBox="0 0 56 56" fill="none" xmlns="http://www.w3.org/2000/svg">
<circle cx="28" cy="28" r="25.5" fill="#F4730E" stroke="white" stroke-width="5"/>
<path d="M33.7156 26.5283H25.6626L29.1639 23.0375C29.3637 22.8378 29.4759 22.5668 29.4759 22.2842C29.4759 22.0017 29.3637 21.7307 29.1639 21.5309C28.9641 21.3311 28.6931 21.2189 28.4106 21.2189C28.128 21.2189 27.8571 21.3311 27.6573 21.5309L22.3522 26.836C22.2556 26.9369 22.1799 27.0559 22.1294 27.1861C22.0233 27.4444 22.0233 27.7342 22.1294 27.9925C22.1799 28.1227 22.2556 28.2417 22.3522 28.3426L27.6573 33.6477C27.7559 33.7471 27.8733 33.826 28.0025 33.8799C28.1318 33.9338 28.2705 33.9615 28.4106 33.9615C28.5507 33.9615 28.6893 33.9338 28.8186 33.8799C28.9479 33.826 29.0653 33.7471 29.1639 33.6477C29.2634 33.549 29.3423 33.4317 29.3962 33.3024C29.45 33.1731 29.4777 33.0344 29.4777 32.8943C29.4777 32.7543 29.45 32.6156 29.3962 32.4863C29.3423 32.357 29.2634 32.2397 29.1639 32.141L25.6626 28.6503H33.7156C33.997 28.6503 34.2669 28.5385 34.4659 28.3395C34.6649 28.1406 34.7767 27.8707 34.7767 27.5893C34.7767 27.3079 34.6649 27.038 34.4659 26.839C34.2669 26.6401 33.997 26.5283 33.7156 26.5283Z" fill="white"/>
</svg>
