<svg width="56" height="56" viewBox="0 0 56 56" fill="none" xmlns="http://www.w3.org/2000/svg">
<circle cx="28" cy="28" r="25.5" fill="#F4730E" stroke="white" stroke-width="5"/>
<path d="M34.6917 27.1861C34.6412 27.0559 34.5655 26.9369 34.4689 26.836L29.1638 21.5309C29.0649 21.432 28.9475 21.3535 28.8182 21.3C28.6889 21.2464 28.5504 21.2189 28.4105 21.2189C28.128 21.2189 27.857 21.3311 27.6572 21.5309C27.5583 21.6298 27.4798 21.7473 27.4262 21.8765C27.3727 22.0058 27.3452 22.1443 27.3452 22.2842C27.3452 22.5668 27.4574 22.8378 27.6572 23.0375L31.1585 26.5283H23.1054C22.824 26.5283 22.5542 26.6401 22.3552 26.839C22.1562 27.038 22.0444 27.3079 22.0444 27.5893C22.0444 27.8707 22.1562 28.1406 22.3552 28.3395C22.5542 28.5385 22.824 28.6503 23.1054 28.6503H31.1585L27.6572 32.141C27.5577 32.2397 27.4788 32.357 27.4249 32.4863C27.3711 32.6156 27.3433 32.7543 27.3433 32.8943C27.3433 33.0344 27.3711 33.1731 27.4249 33.3024C27.4788 33.4317 27.5577 33.549 27.6572 33.6477C27.7558 33.7471 27.8732 33.826 28.0025 33.8799C28.1318 33.9338 28.2704 33.9615 28.4105 33.9615C28.5506 33.9615 28.6893 33.9338 28.8185 33.8799C28.9478 33.826 29.0652 33.7471 29.1638 33.6477L34.4689 28.3426C34.5655 28.2417 34.6412 28.1227 34.6917 27.9925C34.7978 27.7342 34.7978 27.4444 34.6917 27.1861Z" fill="white"/>
</svg>
