<svg width="41" height="32" viewBox="0 0 41 32" fill="none" xmlns="http://www.w3.org/2000/svg">
<g clip-path="url(#clip0_2_286)">
<path d="M7.75761 8.55L14.0887 10.8844C16.2671 5.78312 19.437 1.85937 22.7079 0.028124C16.7625 -0.276564 11.0007 2.33812 7.29875 7.00938C6.87709 7.5375 7.12513 8.325 7.75761 8.55ZM15.9552 11.5625L30.7443 16.9919C32.9611 9.40437 31.8989 2.51687 28.1008 1.12312C27.6435 0.959062 27.1632 0.869249 26.6672 0.869249C23.0738 0.867499 18.7146 5.19562 15.9552 11.5625ZM32.9394 3.78187C33.3269 4.7975 33.606 5.94562 33.7535 7.235C34.1101 10.3519 33.6682 13.9913 32.5828 17.6663L38.9449 20.0019C39.5731 20.2362 40.2626 19.7909 40.2781 19.1194C40.43 13.1313 37.683 7.4 32.9394 3.78187ZM33.3424 28H20.5066L24.5372 16.8438L20.8086 15.4769L16.2894 28.0019H3.57823C1.93437 28 0.601807 29.3438 0.601807 31C0.601807 31.55 1.04598 32 1.59395 32H35.3267C35.8747 32 36.3188 31.5523 36.3188 31.0563C36.3188 29.3438 34.9856 28 33.3424 28Z" fill="#F4730E"/>
</g>
<defs>
<clipPath id="clip0_2_286">
<rect width="39.6856" height="32" fill="white" transform="translate(0.601807)"/>
</clipPath>
</defs>
</svg>
