<svg width="40" height="32" viewBox="0 0 40 32" fill="none" xmlns="http://www.w3.org/2000/svg">
<g clip-path="url(#clip0_2_295)">
<path d="M19.8366 20C23.3965 20 26.2297 17.09 26.2297 13.5C26.2297 9.91 23.3438 7 19.8366 7C16.2767 7 13.4435 9.91 13.4435 13.5C13.3877 17.0875 16.2773 20 19.8366 20ZM22.937 22H16.7486C11.8809 22 7.93712 25.7312 7.93712 30.3312C7.93712 31.2562 8.72463 32 9.69816 32H29.9874C30.961 32 31.7485 31.2562 31.7485 30.3312C31.7485 25.7312 27.8047 22 22.937 22ZM31.7485 10C34.488 10 36.7092 7.76125 36.7092 5C36.7092 2.23875 34.4893 0 31.7485 0C29.0089 0 26.7878 2.23875 26.7878 5C26.7878 7.76125 29.0077 10 31.7485 10ZM11.4034 13.5C11.4034 13.1594 11.4643 12.8356 11.5032 12.5056C10.8267 12.1312 10.0826 12 9.29511 12H5.46173C2.44562 12 0 14.6125 0 17.8312C0 18.475 0.489063 19 1.09259 19H13.4633C12.1971 17.5125 11.4034 15.6062 11.4034 13.5ZM7.93712 10C10.6767 10 12.8978 7.76125 12.8978 5C12.8978 2.23875 10.6779 0 7.93712 0C5.19757 0 2.97642 2.23875 2.97642 5C2.97642 7.76125 5.19757 10 7.93712 10ZM34.2226 12H30.388C29.5943 12 28.8452 12.1898 28.1644 12.515C28.2016 12.8438 28.2636 13.1625 28.2636 13.5C28.2636 15.6069 27.4711 17.5131 26.2074 19H38.5905C39.1957 19 39.6856 18.475 39.6856 17.8312C39.6856 14.6125 37.2424 12 34.2226 12Z" fill="#F4730E"/>
</g>
<defs>
<clipPath id="clip0_2_295">
<rect width="39.6856" height="32" fill="white"/>
</clipPath>
</defs>
</svg>
