<svg width="36" height="40" viewBox="0 0 36 40" fill="none" xmlns="http://www.w3.org/2000/svg">
<g clip-path="url(#clip0_2_278)">
<path d="M28.0768 10C28.0768 15.5234 23.6354 20 18.1554 20C12.6754 20 8.23402 15.5234 8.23402 10C8.23402 4.47734 12.6754 0 18.1554 0C23.6354 0 28.0768 4.47734 28.0768 10ZM17.0005 28.0625L14.4349 23.75H21.8759L19.3103 28.0625L21.8914 37.7422L24.9531 25.1484C30.937 26.0859 35.5179 31.3047 35.5179 37.6016C35.5179 38.9219 34.4482 40 33.1383 40H3.1741C1.85874 40 0.792969 38.9219 0.792969 37.6016C0.792969 31.3047 5.37309 26.0859 11.3577 25.1484L14.4194 37.7422L17.0005 28.0625Z" fill="#F4730E"/>
</g>
<defs>
<clipPath id="clip0_2_278">
<rect width="34.7249" height="40" fill="white" transform="translate(0.792969)"/>
</clipPath>
</defs>
</svg>
