<svg width="53" height="60" viewBox="0 0 53 60" fill="none" xmlns="http://www.w3.org/2000/svg">
<path d="M41.6429 15C41.6429 23.2852 34.8641 30 26.5 30C18.1359 30 11.3571 23.2852 11.3571 15C11.3571 6.71602 18.1359 0 26.5 0C34.8641 0 41.6429 6.71602 41.6429 15ZM24.7373 42.0938L20.8214 35.625H32.1786L28.2627 42.0938L32.2022 56.6133L36.8752 37.7227C46.0083 39.1289 53 46.957 53 56.4023C53 58.3828 51.3674 60 49.3681 60H3.63429C1.62667 60 0 58.3828 0 56.4023C0 46.957 6.99056 39.1289 16.1248 37.7227L20.7978 56.6133L24.7373 42.0938Z" fill="#F4730E"/>
</svg>
