<svg width="64" height="52" viewBox="0 0 64 52" fill="none" xmlns="http://www.w3.org/2000/svg">
<path d="M31.99 32.5C37.731 32.5 42.3 27.7712 42.3 21.9375C42.3 16.1038 37.646 11.375 31.99 11.375C26.249 11.375 21.68 16.1038 21.68 21.9375C21.59 27.7672 26.25 32.5 31.99 32.5ZM36.99 35.75H27.01C19.16 35.75 12.8 41.8133 12.8 49.2883C12.8 50.7914 14.07 52 15.64 52H48.36C49.93 52 51.2 50.7914 51.2 49.2883C51.2 41.8133 44.84 35.75 36.99 35.75ZM51.2 16.25C55.618 16.25 59.2 12.612 59.2 8.125C59.2 3.63797 55.62 0 51.2 0C46.782 0 43.2 3.63797 43.2 8.125C43.2 12.612 46.78 16.25 51.2 16.25ZM18.39 21.9375C18.39 21.3841 18.4882 20.8579 18.5509 20.3216C17.46 19.7133 16.26 19.5 14.99 19.5H8.808C3.944 19.5 0 23.7453 0 28.9758C0 30.0219 0.7887 30.875 1.762 30.875H21.712C19.67 28.4578 18.39 25.3602 18.39 21.9375ZM12.8 16.25C17.218 16.25 20.8 12.612 20.8 8.125C20.8 3.63797 17.22 0 12.8 0C8.382 0 4.8 3.63797 4.8 8.125C4.8 12.612 8.382 16.25 12.8 16.25ZM55.19 19.5H49.006C47.726 19.5 46.518 19.8084 45.42 20.3369C45.48 20.8711 45.58 21.3891 45.58 21.9375C45.58 25.3612 44.302 28.4588 42.264 30.875H62.234C63.21 30.875 64 30.0219 64 28.9758C64 23.7453 60.06 19.5 55.19 19.5Z" fill="#673622"/>
</svg>
