<svg width="55" height="44" viewBox="0 0 55 44" fill="none" xmlns="http://www.w3.org/2000/svg">
<path d="M55 20.6241V41.2491C55 42.7677 53.7685 43.9991 52.25 43.9991H2.75C1.23148 43.9991 0 42.7677 0 41.2491V12.3741C0 10.0959 1.8468 8.24914 4.125 8.24914H5.5V2.0625C5.5 0.923828 6.42383 0.0773437 7.5625 0.0773437C8.70117 0.0773437 9.625 0.922969 9.625 2.0625V8.25H15.125V2.0625C15.125 0.923828 16.0488 0.0773437 17.1875 0.0773437C18.3262 0.0773437 19.25 0.922969 19.25 2.0625V8.17266H24.75V4.125C24.75 1.8468 26.5968 0 28.875 0L37.125 0.000421094C39.4032 0.000421094 41.25 1.84722 41.25 4.12542V16.4231H50.875C53.1523 16.4991 55 18.3468 55 20.6241ZM11 14.7804C11 14.2111 10.5381 13.7491 9.96875 13.7491H6.53125C5.96191 13.7491 5.5 14.2111 5.5 14.7804V18.2179C5.5 18.7872 5.96191 19.2491 6.53125 19.2491H9.96875C10.5381 19.2491 11 18.7872 11 18.2179V14.7804ZM11 23.0304C11 22.4611 10.5381 21.9991 9.96875 21.9991H6.53125C5.96191 21.9991 5.5 22.4611 5.5 23.0304V26.4679C5.5 27.0372 5.96191 27.4991 6.53125 27.4991H9.96875C10.5381 27.4991 11 27.0372 11 26.4679V23.0304ZM11 31.2804C11 30.7111 10.5381 30.2491 9.96875 30.2491H6.53125C5.96191 30.2491 5.5 30.7111 5.5 31.2804V34.7179C5.5 35.2872 5.96191 35.7491 6.53125 35.7491H9.96875C10.5381 35.7491 11 35.2872 11 34.7179V31.2804ZM22 14.7804C22 14.2111 21.5381 13.7491 20.9688 13.7491H17.5312C16.9619 13.7491 16.5 14.2111 16.5 14.7804V18.2179C16.5 18.7872 16.9619 19.2491 17.5312 19.2491H20.9688C21.5381 19.2491 22 18.7872 22 18.2179V14.7804ZM22 23.0304C22 22.4611 21.5381 21.9991 20.9688 21.9991H17.5312C16.9641 21.9991 16.5 22.4632 16.5 23.0304V26.4679C16.5 27.0372 16.9619 27.4991 17.5312 27.4991H20.9688C21.5381 27.4991 22 27.0372 22 26.4679V23.0304ZM22 31.2804C22 30.7111 21.5381 30.2491 20.9688 30.2491H17.5312C16.9619 30.2491 16.5 30.7115 16.5 31.2804V34.7179C16.5 35.2872 16.9619 35.7491 17.5312 35.7491H20.9688C21.5381 35.7491 22 35.2872 22 34.7179V31.2804ZM35.75 6.53125C35.75 5.96191 35.2881 5.5 34.7188 5.5H31.2812C30.7119 5.5 30.25 5.96191 30.25 6.53125V9.96875C30.25 10.5381 30.7119 11 31.2812 11H34.7188C35.2881 11 35.75 10.5381 35.75 9.96875V6.53125ZM35.75 14.7804C35.75 14.2111 35.2881 13.7491 34.7188 13.7491H31.2812C30.7119 13.7491 30.25 14.2115 30.25 14.7804V18.2179C30.25 18.7872 30.7119 19.2491 31.2812 19.2491H34.7188C35.2881 19.2491 35.75 18.7872 35.75 18.2179V14.7804ZM35.75 23.0304C35.75 22.4611 35.2881 21.9991 34.7188 21.9991H31.2812C30.7119 21.9991 30.25 22.4615 30.25 23.0304V26.4679C30.25 27.0372 30.7119 27.4991 31.2812 27.4991H34.7188C35.2881 27.4991 35.75 27.0372 35.75 26.4679V23.0304ZM49.5 23.0304C49.5 22.4611 49.0381 21.9991 48.4688 21.9991H45.0312C44.4619 21.9991 44 22.4611 44 23.0304V26.4679C44 27.0372 44.4619 27.4991 45.0312 27.4991H48.4688C49.0381 27.4991 49.5 27.0372 49.5 26.4679V23.0304ZM49.5 31.2804C49.5 30.7111 49.0381 30.2491 48.4688 30.2491H45.0312C44.4619 30.2491 44 30.7111 44 31.2804V34.7179C44 35.2872 44.4619 35.7491 45.0312 35.7491H48.4688C49.0381 35.7491 49.5 35.2872 49.5 34.7179V31.2804Z" fill="#673622"/>
</svg>
